<?xml version="1.0" standalone="no"?>
<!DOCTYPE svg PUBLIC "-//W3C//DTD SVG 20010904//EN"
 "http://www.w3.org/TR/2001/REC-SVG-20010904/DTD/svg10.dtd">
<svg version="1.0" xmlns="http://www.w3.org/2000/svg"
 width="260.000000pt" height="260.000000pt" viewBox="0 0 260.000000 260.000000"
 preserveAspectRatio="xMidYMid meet">
<metadata>
Created by potrace 1.11, written by Peter Selinger 2001-2013
</metadata>
<g transform="translate(0.000000,260.000000) scale(0.100000,-0.100000)"
fill="#000000" stroke="none">
<path d="M635 2450 c-7 -11 -3 -2300 3 -2301 30 -5 732 -3 732 2 0 4 -63 71
-141 148 l-141 141 -79 0 -79 0 0 43 c-1 53 -1 1648 0 1665 0 8 23 12 79 12
l79 0 146 146 c80 80 146 146 146 147 0 5 -742 1 -745 -3z"/>
<path d="M1363 2308 l-148 -148 228 0 227 0 0 -72 c1 -88 1 -1593 0 -1625 l0
-23 -225 -2 -226 -3 145 -145 146 -145 227 0 228 0 2 1153 c1 633 -1 1153 -5
1153 -4 1 -107 2 -229 3 l-223 1 -147 -147z"/>
</g>
</svg>
